<svg width="298" height="104" viewBox="0 0 298 104" xmlns="http://www.w3.org/2000/svg">
  <g fill="none" fill-rule="evenodd">
    <path d="M0 0h298v104H0z"/>
    <path d="M247 51.3c-3 0-4.9 1.5-6.3 3.8 0-.6.3-1.3.3-1.8v-1h-5v25h5V62.9c0-4.1 2.2-6.6 6-6.6h1v-5h-1zM43.7 60.5c-1.4-2.2-3.4-3.7-6.3-3.7-4.6 0-7.9 3.5-7.9 7.9s3.3 7.9 7.9 7.9c2.9 0 4.9-1.4 6.3-3.6l4.6 2.7c-2.2 3.4-6.3 5.9-10.9 5.9-8.5 0-13.4-6.4-13.4-12.8S29 52 37.4 52c5.2 0 8.5 2.5 10.9 5.9l-4.6 2.6zm9-7.9h5.2v13.6c0 3.6 2.6 6.1 5.9 6.1 3.2 0 5.9-2.6 5.9-6.1V52.6h5.2v14c0 6.8-5.3 10.9-11.1 10.9s-11.1-4.1-11.1-10.9v-14zm46.6 7.9c-1.4-2.2-3.4-3.7-6.3-3.7-4.6 0-7.9 3.5-7.9 7.9s3.3 7.9 7.9 7.9c2.9 0 4.9-1.4 6.3-3.6l4.6 2.7c-2.2 3.4-6.3 5.9-10.9 5.9-8.5 0-13.4-6.4-13.4-12.8S84.5 52 93 52c5.2 0 8.5 2.5 10.9 5.9l-4.6 2.6zm9-7.9h5.2v13.6c0 3.6 2.6 6.1 5.9 6.1 3.2 0 5.9-2.6 5.9-6.1V52.6h5.2v14c0 6.8-5.3 10.9-11.1 10.9s-11.1-4.1-11.1-10.9v-14zm28.7 9.1c0-6.2 4.1-9.7 8.9-9.7 3.7 0 6.3 1.8 7.3 4.3h.1c1-2.6 3.6-4.3 7.3-4.3 4.8 0 8.9 3.6 8.9 9.7v15.2h-5.2V61.7c0-2.9-1.8-4.6-4-4.6-2.5 0-4.3 1.5-4.3 5.3v14.4h-5.2V62.4c0-3.8-1.8-5.3-4.3-5.3-2.2 0-4 1.7-4 4.6v15.1H137V61.7zm38.9-16.3h5.2v10.2h.1c1.2-2 4.5-3.6 7.9-3.6 6.3 0 12.6 4.7 12.6 12.8 0 8.1-6.3 12.8-12.6 12.8-3.4 0-6.7-1.6-7.9-3.6h-.1v3h-5.2V45.4zm12.7 11.5c-4.3 0-7.5 3.4-7.5 7.9s3.2 7.9 7.5 7.9c4.4 0 7.6-3.4 7.6-7.9 0-4.6-3.2-7.9-7.6-7.9zm41.1 14.7c-2.9 3.7-6.9 5.9-11.3 5.9-8.5 0-13.4-6.4-13.4-12.8S210 52 218.4 52c5 0 12.6 4.2 12.6 13.6v.9h-20.1c.3 3.7 3.8 6.4 7.4 6.4 2.8 0 5.2-1.4 7-3.8l4.4 2.5zm-4.8-9.4c-1.1-3.7-3.8-5.7-7.2-5.7-3.3 0-6 2.1-6.9 5.7h14.1z" fill="#1b1d1e"/>
    <path d="M262.192 14.82c-9.05 0-16.375 7.324-16.375 16.375 0 7.968 5.712 14.589 13.25 16.062v4.688c9.8-1.478 18.478-9.257 19.125-19.47.39-6.146-2.675-12.42-7.844-15.468a13.755 13.755 0 0 0-.906-.5c-.315-.155-.64-.306-.969-.437-.104-.044-.207-.084-.312-.125-.288-.107-.578-.226-.875-.313a16.246 16.246 0 0 0-5.094-.812z" fill="#00A818"/>
    <path d="M265.567 20.882a1.787 1.787 0 0 0-1.562.625c-.3.4-.488.788-.688 1.188-.6 1.4-.4 2.9.5 4 1.4-.3 2.588-1.194 3.188-2.594.2-.4.312-.913.312-1.313.063-1.062-.816-1.81-1.75-1.906zm-7.281.094c-.913.087-1.781.812-1.781 1.812 0 .4.112.913.312 1.313.6 1.4 1.881 2.294 3.281 2.594.8-1.1 1.007-2.6.407-4-.2-.4-.388-.794-.688-1.094a1.757 1.757 0 0 0-1.531-.625zm-4.906 4.812c-1.577.081-2.282 2.063-.97 3.094.4.3.788.519 1.188.719 1.4.6 3.02.394 4.22-.406-.3-1.3-1.32-2.494-2.72-3.094-.5-.2-.906-.313-1.406-.313-.112-.012-.207-.005-.312 0zm15.406 6.063a4.574 4.574 0 0 0-2.594.75c.3 1.3 1.319 2.494 2.719 3.094.5.2.906.312 1.406.312 1.8.1 2.681-2.125 1.281-3.125-.4-.3-.787-.487-1.187-.687a4.32 4.32 0 0 0-1.625-.344zm-13.656.094c-.55.01-1.1.118-1.625.343-.5.2-.888.42-1.188.72-1.3 1.1-.425 3.193 1.375 3.093.5 0 1.006-.113 1.406-.313 1.4-.6 2.394-1.793 2.594-3.093a4.475 4.475 0 0 0-2.562-.75zm5.062 3.062c-1.4.3-2.587 1.194-3.187 2.594-.2.4-.313.881-.313 1.281-.1 1.7 2.219 2.613 3.219 1.313.3-.4.487-.788.687-1.188.6-1.3.394-2.8-.406-4zm3.719.094c-.8 1.1-1.006 2.6-.406 4 .2.4.387.794.687 1.094 1.1 1.2 3.413.312 3.313-1.188 0-.4-.113-.912-.313-1.312-.6-1.4-1.881-2.294-3.281-2.594z" fill="#FFF"/>
  </g>
</svg>
