<?xml version="1.0" standalone="no"?>
<!DOCTYPE svg PUBLIC "-//W3C//DTD SVG 20010904//EN"
 "http://www.w3.org/TR/2001/REC-SVG-20010904/DTD/svg10.dtd">
<svg version="1.0" xmlns="http://www.w3.org/2000/svg"
 width="300.000000pt" height="299.000000pt" viewBox="0 0 300.000000 299.000000"
 preserveAspectRatio="xMidYMid meet">
<metadata>
Created by potrace 1.10, written by Peter Selinger 2001-2011
</metadata>
<g transform="translate(0.000000,299.000000) scale(0.100000,-0.100000)"
fill="#000000" stroke="none">
<path d="M596 1969 c-35 -28 -49 -57 -48 -99 3 -82 44 -120 128 -120 39 0 51
5 80 34 28 28 34 42 34 75 0 82 -49 131 -128 131 -25 0 -49 -8 -66 -21z m145
-35 c26 -24 25 -93 -1 -127 -42 -53 -131 -42 -157 20 -33 80 29 154 111 131
16 -4 37 -15 47 -24z"/>
<path d="M944 1980 c-62 -25 -86 -129 -43 -184 40 -50 64 -56 244 -56 104 0
175 4 188 11 94 48 109 156 32 217 -26 21 -38 22 -214 21 -102 0 -196 -4 -207
-9z m388 -36 c53 -27 63 -85 24 -131 l-24 -28 -186 0 c-179 0 -186 1 -208 23
-41 40 -26 121 27 143 35 14 336 8 367 -7z"/>
<path d="M1554 1971 c-39 -24 -58 -70 -51 -122 6 -47 29 -76 74 -95 42 -18
135 -18 178 0 90 38 100 177 15 221 -44 23 -176 20 -216 -4z m208 -37 c29 -27
39 -59 28 -90 -20 -51 -37 -59 -126 -59 -74 0 -84 2 -103 24 -41 47 -21 120
39 145 31 12 140 -1 162 -20z"/>
<path d="M943 1605 c-85 -37 -83 -185 2 -221 26 -10 83 -14 228 -14 185 0 196
1 228 23 19 13 40 39 48 61 20 52 0 111 -48 143 -33 22 -42 23 -230 23 -144
-1 -204 -4 -228 -15z m424 -30 c85 -36 61 -163 -31 -166 -153 -4 -346 -2 -367
4 -49 13 -70 97 -33 138 10 12 28 25 39 30 34 14 356 9 392 -6z"/>
<path d="M1603 1600 c-37 -22 -63 -67 -63 -107 0 -61 64 -123 128 -123 42 0
94 39 111 84 40 106 -79 205 -176 146z m128 -39 c21 -22 29 -39 29 -66 0 -27
-8 -44 -29 -66 -22 -21 -39 -29 -66 -29 -27 0 -44 8 -66 29 -21 22 -29 39 -29
66 0 27 8 44 29 66 22 21 39 29 66 29 27 0 44 -8 66 -29z"/>
<path d="M1933 1600 c-37 -22 -63 -67 -63 -107 0 -38 33 -89 69 -108 40 -20
153 -20 197 1 86 41 85 184 -1 220 -52 21 -163 18 -202 -6z m201 -36 c45 -33
45 -95 -1 -136 -26 -24 -153 -27 -187 -5 -49 33 -47 112 5 145 41 25 145 23
183 -4z"/>
<path d="M1204 1236 c-77 -33 -101 -136 -46 -196 48 -55 146 -51 192 8 28 34
27 110 -1 146 -37 47 -94 64 -145 42z m114 -52 c31 -36 30 -97 -3 -129 -50
-51 -141 -26 -158 43 -23 95 96 159 161 86z"/>
<path d="M1524 1231 c-46 -28 -64 -59 -64 -111 0 -52 18 -83 60 -105 43 -22
498 -22 540 0 58 30 77 112 40 173 -35 57 -62 62 -317 62 -207 0 -231 -2 -259
-19z m509 -33 c37 -20 47 -35 47 -77 0 -42 -17 -66 -57 -82 -13 -5 -124 -9
-246 -9 -202 1 -224 2 -244 19 -48 40 -50 106 -5 141 23 19 41 20 254 20 155
0 236 -4 251 -12z"/>
<path d="M2285 1236 c-67 -30 -98 -97 -72 -157 20 -48 50 -71 100 -76 81 -9
137 42 137 125 0 83 -89 141 -165 108z m107 -43 c42 -38 38 -119 -8 -150 -31
-20 -91 -19 -115 2 -26 24 -42 71 -35 100 16 65 109 93 158 48z"/>
</g>
</svg>
