<svg xmlns="http://www.w3.org/2000/svg" width="63.046" height="72.011" viewBox="0 0 63.046 72.011">
  <g id="Group_1674" data-name="Group 1674" transform="translate(-2479.835 -1961.668)">
    <g id="Group_1673" data-name="Group 1673" transform="translate(2479.835 1961.668)">
      <path id="Path_1632" data-name="Path 1632" d="M2527.593,1968.2q-.817-.492-1.671-.922c-.582-.286-1.181-.565-1.789-.807-.192-.081-.381-.155-.575-.23-.531-.2-1.066-.417-1.614-.578a30.2,30.2,0,1,0-15.163,58.345v8.649c18.08-2.727,34.09-17.078,35.283-35.92C2542.783,1985.4,2537.129,1973.826,2527.593,1968.2Z" transform="translate(-2480.708 -1962.54)" fill="#23d96c" fill-rule="evenodd"/>
      <path id="Path_1633" data-name="Path 1633" d="M2504.28,2033.679v-9.228a31.825,31.825,0,0,1,7.394-62.783,31.526,31.526,0,0,1,9.905,1.579c.427.124.871.293,1.3.457l.373.141c.255.1.447.175.643.258.538.214,1.143.486,1.871.844q.922.464,1.786.985c9.9,5.841,16.032,17.911,15.263,30.038-1.183,18.661-16.6,34.4-36.666,37.426Zm7.435-68.756h-.039a28.571,28.571,0,0,0-5.456,56.618l1.315.257v8.055c17.639-3.458,30.983-17.528,32.032-34.089.693-10.936-4.8-21.8-13.674-27.032l-.014-.009c-.506-.3-1.032-.595-1.562-.862-.637-.312-1.167-.553-1.657-.747-.2-.085-.365-.149-.533-.214l-.407-.154c-.386-.147-.752-.287-1.105-.39A28.417,28.417,0,0,0,2511.715,1964.923Z" transform="translate(-2479.835 -1961.668)" fill="#173647"/>
    </g>
    <path id="Path_1634" data-name="Path 1634" d="M2517.989,1987.01a2.791,2.791,0,0,1,2.451.942,6.448,6.448,0,0,1,1.127,1.714c1,2.2,1.59,5.359.355,7.13a9.8,9.8,0,0,1-6.164-4.779,5.013,5.013,0,0,1-.538-2.074A3.03,3.03,0,0,1,2517.989,1987.01Z" transform="translate(-12.347 -8.835)" fill="#173647" fill-rule="evenodd"/>
    <path id="Path_1635" data-name="Path 1635" d="M2506.913,1998.556a3.081,3.081,0,0,1,.5,0,5.672,5.672,0,0,1,2.232.5c2.222.952,4.7,3.279,5.18,5.343-1.906,1.27-5.339,1.166-7.562.214a11.975,11.975,0,0,1-1.885-1.141A2.735,2.735,0,0,1,2506.913,1998.556Z" transform="translate(-8.531 -12.868)" fill="#173647" fill-rule="evenodd"/>
    <path id="Path_1636" data-name="Path 1636" d="M2509.616,2019.63a5.117,5.117,0,0,1-2.232.5,2.814,2.814,0,0,1-2.183-4.91,5.43,5.43,0,0,1,1.886-1.143,6.838,6.838,0,0,1,2.58-.545c1.445-.026,3.926-.348,5.129.453C2514.478,2016.045,2511.838,2018.678,2509.616,2019.63Z" transform="translate(-8.507 -18.066)" fill="#173647" fill-rule="evenodd"/>
    <path id="Path_1637" data-name="Path 1637" d="M2523.253,2026.689a11.486,11.486,0,0,1-1.09,1.886c-1.588,2.064-5.269.615-5.111-2.085a4.774,4.774,0,0,1,.5-2.033c.952-2.223,3.542-4.953,5.765-5.429C2524.585,2020.933,2524.206,2024.626,2523.253,2026.689Z" transform="translate(-12.985 -20.015)" fill="#173647" fill-rule="evenodd"/>
    <path id="Path_1638" data-name="Path 1638" d="M2532.108,1989.469a11.493,11.493,0,0,1,1.093-1.886,2.838,2.838,0,0,1,2.48-.992,2.966,2.966,0,0,1,2.778,3.026,5.015,5.015,0,0,1-.5,2.085,9.2,9.2,0,0,1-5.722,4.9C2530.812,1994.859,2531.156,1991.691,2532.108,1989.469Z" transform="translate(-17.951 -8.691)" fill="#173647" fill-rule="evenodd"/>
    <path id="Path_1639" data-name="Path 1639" d="M2533.746,2028.852a6.417,6.417,0,0,1-1.091-1.737c-.952-2.222-.919-5.548.35-7.295,2.222.477,4.551,2.84,5.5,5.063a5.009,5.009,0,0,1,.5,2.083C2539.164,2029.347,2535.491,2030.757,2533.746,2028.852Z" transform="translate(-18.199 -20.291)" fill="#173647" fill-rule="evenodd"/>
    <path id="Path_1640" data-name="Path 1640" d="M2545.673,2019.942a5.674,5.674,0,0,1-2.232-.5c-2.222-.952-4.658-3.178-5.134-5.242,1.221-.8,3.475-.887,4.936-.86a6.862,6.862,0,0,1,2.58.547,11.546,11.546,0,0,1,1.884,1.09C2549.929,2016.569,2548.531,2020.1,2545.673,2019.942Z" transform="translate(-20.402 -18.03)" fill="#173647" fill-rule="evenodd"/>
  </g>
</svg>
